<?xml version="1.0" standalone="no"?>
<!DOCTYPE svg PUBLIC "-//W3C//DTD SVG 20010904//EN"
 "http://www.w3.org/TR/2001/REC-SVG-20010904/DTD/svg10.dtd">
<svg version="1.0" xmlns="http://www.w3.org/2000/svg"
 width="500.000000pt" height="500.000000pt" viewBox="0 0 500.000000 500.000000"
 preserveAspectRatio="xMidYMid meet">
<metadata>
Created by potrace 1.16, written by Peter Selinger 2001-2019
</metadata>
<g transform="translate(0.000000,500.000000) scale(0.100000,-0.100000)"
fill="#000000" stroke="none">
<path d="M2275 4730 c-421 -43 -841 -215 -1179 -484 -448 -357 -742 -865 -832
-1441 -23 -153 -24 -488 0 -645 147 -965 896 -1735 1849 -1901 378 -66 724
-40 1090 82 337 112 608 275 861 519 955 919 914 2464 -88 3327 -336 289 -743
473 -1181 533 -109 15 -410 21 -520 10z m254 -536 c18 -40 25 -110 12 -118 -6
-4 -11 -1 -11 7 0 8 -6 20 -14 26 -11 9 -15 -14 -20 -146 -4 -87 -5 -196 -2
-243 3 -47 8 -177 12 -290 5 -153 11 -219 24 -262 l18 -58 -27 6 c-14 4 -28 8
-30 10 -12 10 -20 922 -9 973 7 27 5 32 -7 27 -21 -8 -19 16 6 58 25 43 32 44
48 10z m-733 -43 c72 -5 140 -14 152 -20 15 -8 32 -7 69 4 64 20 66 19 47 -11
-10 -14 -24 -39 -33 -56 -16 -30 -45 -49 -128 -83 -33 -14 -59 -17 -116 -12
-41 3 -81 1 -91 -5 -13 -7 -22 -6 -35 6 -10 9 -21 16 -26 16 -4 0 1 -8 12 -17
24 -21 38 -59 25 -67 -5 -3 -9 -17 -9 -31 0 -18 5 -25 18 -25 15 0 19 -7 19
-33 0 -18 4 -37 10 -43 5 -5 11 -26 12 -47 2 -20 9 -39 16 -42 7 -3 11 -1 9 3
-5 11 42 52 48 41 4 -5 6 -19 5 -32 -4 -45 0 -76 13 -89 12 -12 45 -63 81
-120 9 -16 25 -28 36 -28 23 0 188 -158 193 -185 2 -11 9 -33 16 -49 15 -37 8
-56 -21 -56 -19 0 -20 -2 -8 -10 11 -7 4 -10 -26 -10 -23 0 -55 -7 -70 -15
-52 -27 -83 -15 -49 19 8 8 15 19 15 25 0 6 23 13 50 17 30 4 50 12 50 19 0
16 -33 25 -52 14 -9 -5 -22 -3 -34 6 -10 8 -14 15 -7 15 17 0 4 30 -13 30 -13
0 -19 13 -15 34 1 5 -5 6 -13 3 -12 -5 -14 3 -13 36 2 35 -1 42 -18 45 -16 3
-17 1 -5 -7 12 -9 11 -11 -7 -11 -12 0 -28 -6 -35 -13 -18 -19 -108 -29 -108
-12 0 6 -11 18 -25 25 -26 14 -41 43 -36 73 4 25 -17 47 -45 47 -21 0 -24 5
-24 40 0 33 -4 42 -27 53 -40 20 -86 30 -78 17 3 -5 0 -10 -8 -10 -7 0 -14 6
-14 13 0 6 -3 23 -8 36 -6 21 -5 23 13 19 31 -9 16 15 -21 32 -18 8 -32 23
-32 32 0 10 -4 18 -8 18 -57 1 -57 1 -54 -28 2 -15 7 -34 11 -41 13 -21 0 -22
-18 -2 -17 18 -30 58 -43 124 -4 18 0 34 12 47 9 10 14 24 10 29 -3 6 -2 11 3
11 6 0 12 10 16 23 5 20 38 59 94 110 15 14 21 15 25 5 4 -9 11 -6 26 12 11
14 21 22 22 18 1 -5 2 -12 3 -17 0 -5 4 -13 9 -17 4 -4 7 12 7 36 0 29 -6 47
-17 55 -15 11 -15 15 -4 29 15 18 50 19 247 7z m320 -87 c-2 -29 -8 -60 -15
-68 -7 -8 -9 -21 -5 -27 4 -8 3 -9 -4 -5 -8 5 -12 -1 -12 -14 0 -13 4 -19 11
-14 8 4 9 -1 4 -15 -5 -16 3 -37 32 -79 21 -31 41 -59 45 -62 3 -3 9 -19 13
-35 16 -74 50 -152 76 -177 21 -20 29 -37 29 -63 0 -33 14 -48 22 -24 2 7 12
6 30 -4 18 -9 24 -17 18 -27 -11 -17 -2 -40 16 -40 8 0 14 -2 14 -5 0 -9 -58
-118 -76 -142 -10 -14 -12 -23 -5 -23 6 0 11 -8 11 -17 0 -14 -4 -13 -18 7 -9
14 -30 39 -46 55 -39 41 -116 145 -116 158 0 5 9 2 20 -8 11 -10 20 -16 20
-12 0 12 -53 107 -60 107 -5 0 -6 8 -3 19 3 11 -2 21 -11 24 -9 4 -16 17 -16
31 0 13 -4 26 -9 28 -5 2 -12 17 -16 33 l-6 30 16 -27 c17 -30 31 -38 21 -12
-4 11 2 10 24 -6 41 -29 37 -15 -10 36 -22 24 -40 51 -40 60 0 10 -7 25 -16
35 -9 10 -17 31 -18 46 -4 40 -20 44 -24 5 -4 -39 -22 -38 -35 2 -11 32 22
122 62 170 37 44 61 90 61 118 0 17 3 19 9 9 5 -7 8 -38 7 -67z m1336 -24 c11
0 17 -4 14 -8 -3 -5 18 -5 47 0 115 20 143 -24 141 -219 -1 -137 -8 -183 -24
-183 -24 0 -46 -37 -42 -71 3 -30 -1 -38 -35 -65 -59 -47 -199 -107 -220 -95
-13 7 -14 10 -4 11 8 0 36 24 63 53 35 37 48 59 46 77 -1 14 11 45 27 70 16
25 30 58 32 73 2 16 7 37 13 47 5 10 10 37 10 59 0 35 -5 44 -40 72 -22 18
-40 38 -40 45 0 6 -7 14 -15 18 -15 5 -40 55 -32 62 2 2 17 -2 33 -10 31 -15
146 -28 139 -15 -3 3 -25 10 -50 14 -47 7 -105 47 -127 88 -10 20 -10 20 17
-1 15 -12 36 -22 47 -22z m-190 -33 c15 -4 18 -3 10 5 -8 8 -7 15 3 24 7 8 17
14 20 14 8 0 2 -46 -10 -75 -8 -17 -7 -18 7 -7 13 10 16 8 21 -16 4 -17 31
-54 67 -90 l61 -60 -7 -49 c-8 -59 -12 -67 -28 -54 -10 8 -30 -5 -79 -51 -37
-33 -67 -66 -67 -72 0 -6 26 15 58 47 62 61 72 67 72 40 -1 -27 -51 -93 -85
-111 -16 -10 -33 -22 -38 -29 -11 -17 -37 -4 -37 18 0 10 -5 19 -10 19 -27 0
45 96 100 133 29 20 12 22 -33 3 -47 -20 -121 -104 -141 -161 -26 -74 -25 -73
-137 -173 -57 -51 -144 -131 -192 -177 -49 -46 -87 -81 -85 -77 2 4 12 25 22
47 10 22 26 45 36 52 19 14 33 53 19 53 -5 0 -18 -5 -28 -12 -46 -29 -100 57
-67 107 13 19 22 23 48 19 25 -4 40 1 63 19 27 22 28 26 15 43 -9 11 -10 15
-2 10 8 -5 12 0 12 18 0 14 -4 28 -10 31 -5 3 -10 18 -10 33 0 34 -14 57 -29
48 -6 -4 -11 -2 -11 3 0 6 4 11 8 11 5 0 15 16 22 36 8 20 25 40 37 45 13 5
23 15 23 23 0 8 14 17 30 21 35 8 37 12 13 32 -17 13 -17 14 1 5 11 -6 27 -6
35 -2 9 5 24 11 33 14 10 3 21 18 24 33 4 15 13 33 19 38 10 9 22 35 56 123 5
13 14 20 20 16 6 -3 17 3 25 14 8 12 20 19 28 16 7 -3 19 2 26 11 7 8 19 15
26 15 8 0 15 6 15 13 1 6 4 2 6 -9 2 -12 14 -24 25 -27z m-1255 -286 c13 -14
23 -29 23 -33 0 -3 3 -13 6 -21 9 -24 -21 -15 -46 13 -12 14 -7 4 10 -21 54
-79 59 -155 8 -128 -23 12 -74 113 -87 171 -9 36 -8 45 6 55 19 15 47 2 80
-36z m1190 -358 c-3 -32 -18 -92 -35 -133 l-30 -75 -46 3 c-44 3 -46 2 -66
-39 -20 -39 -24 -41 -55 -36 -37 6 -112 -25 -153 -63 -19 -18 -22 -18 -22 -4
0 9 14 28 32 43 17 14 55 50 84 80 32 32 57 50 64 46 7 -4 25 2 41 14 16 12
33 20 38 17 12 -8 53 24 48 37 -3 7 7 27 20 45 14 18 22 40 19 48 -5 14 41 73
58 74 5 0 6 -26 3 -57z m-1334 -483 c4 -1 11 -3 16 -4 5 0 13 -4 17 -8 4 -5
18 -8 30 -8 25 0 41 -16 23 -22 -8 -3 -7 -13 4 -34 27 -52 40 -57 120 -51 l72
6 -65 -15 c-36 -8 -96 -13 -135 -12 -38 1 -101 -4 -140 -11 -89 -16 -131 -9
-139 23 -7 28 1 56 16 56 6 0 8 7 4 15 -3 8 -1 15 4 15 13 0 24 42 12 49 -9 5
143 6 161 1z m-206 -48 c-15 -15 -29 -42 -33 -59 -5 -23 -15 -36 -41 -48 -32
-15 -38 -15 -86 2 -55 19 -133 85 -122 102 10 17 55 13 55 -4 0 -9 9 -15 24
-15 32 0 45 20 14 21 -13 0 -2 7 27 15 33 9 71 12 113 8 47 -5 62 -3 62 7 0 7
3 9 7 6 3 -4 -5 -20 -20 -35z m1588 -47 l70 0 23 -48 c15 -32 38 -59 69 -80
25 -18 64 -47 85 -64 22 -18 46 -33 54 -33 7 0 29 14 47 30 23 20 45 30 66 30
26 0 33 -6 45 -34 12 -30 20 -35 53 -38 35 -3 38 -5 36 -32 -2 -30 -53 -91
-84 -101 -9 -3 -19 -15 -22 -26 -5 -17 -3 -18 11 -7 9 7 6 1 -6 -14 -31 -34
-59 -42 -65 -17 -3 11 -13 19 -22 19 -9 0 -48 15 -86 34 -38 19 -88 37 -112
41 -53 9 -77 22 -77 40 0 8 -7 15 -15 15 -9 0 -15 -9 -15 -25 0 -25 -14 -33
-25 -15 -8 13 -89 68 -105 72 -7 2 -31 22 -54 45 -23 22 -72 55 -108 72 l-66
32 29 32 c16 17 27 37 24 44 -3 8 4 13 18 13 12 0 42 7 67 15 25 8 56 11 70 7
14 -3 57 -6 95 -7z m-2029 -60 c-15 -11 -16 -15 -5 -15 8 0 19 4 25 9 5 4 24
11 42 14 39 8 40 0 6 -72 -21 -46 -23 -59 -13 -82 6 -15 8 -41 4 -58 -4 -17
-1 -47 5 -66 9 -28 9 -49 -3 -103 -8 -37 -12 -86 -10 -109 l5 -42 -64 34 c-47
25 -88 60 -153 131 -50 54 -84 99 -78 102 6 4 14 18 18 32 4 14 25 46 46 72
21 26 39 52 39 58 0 6 4 9 8 6 5 -3 24 8 43 24 l34 29 -36 -12 c-20 -7 -43
-17 -50 -23 -8 -6 -21 -15 -29 -19 -13 -8 -13 -7 -1 9 18 21 150 96 171 96 11
-1 10 -4 -4 -15z m910 6 c-3 -5 -18 -11 -33 -13 -46 -8 -246 -69 -274 -84 -15
-7 -69 -22 -120 -32 -52 -11 -95 -24 -95 -31 -1 -6 -2 -15 -3 -19 -2 -16 -95
-59 -137 -65 -23 -2 -50 1 -63 8 -23 12 -22 12 20 39 30 18 36 25 19 21 -14
-4 -38 -9 -55 -12 l-30 -6 24 27 c14 14 33 26 43 26 10 0 18 4 18 9 0 12 81
31 132 31 l43 -1 -24 -19 c-20 -17 -21 -20 -5 -20 9 0 25 7 34 15 9 8 45 22
81 30 35 9 143 35 239 59 204 51 193 48 186 37z m24 -61 c0 -6 -11 -15 -24
-20 -14 -5 -30 -18 -36 -30 -6 -11 -16 -20 -23 -20 -7 0 -31 -24 -52 -52 -22
-29 -43 -55 -46 -58 -4 -3 -10 -22 -14 -43 -6 -32 -11 -37 -34 -37 -14 0 -55
14 -91 31 -42 20 -87 33 -127 36 -42 4 -64 10 -68 21 -9 24 22 49 68 55 89 12
181 37 242 66 35 17 74 31 87 31 13 0 34 6 48 13 32 16 70 20 70 7z m662 -253
c47 -42 176 -190 205 -234 9 -13 25 -23 39 -23 26 0 40 -15 24 -25 -24 -15
-30 -65 -30 -247 -1 -182 0 -192 21 -214 l21 -23 -23 -32 c-21 -30 -23 -41
-20 -153 2 -121 13 -190 31 -201 6 -4 8 -11 4 -16 -3 -5 -81 -54 -174 -109
l-168 -100 -89 0 c-49 0 -92 3 -96 6 -3 4 3 19 14 34 19 26 21 41 20 276 -1
204 -4 252 -17 271 -13 21 -13 26 1 45 21 31 22 424 1 453 -9 13 -11 29 -5 54
4 20 8 36 8 36 0 0 3 8 7 18 4 10 2 28 -4 40 -6 12 -13 41 -15 65 -5 38 -3 42
16 42 16 0 18 -3 9 -12 -30 -30 5 -58 73 -58 30 0 56 -4 59 -8 3 -5 9 -34 14
-65 l9 -55 -24 15 c-27 18 -31 3 -5 -19 11 -10 41 -16 85 -17 67 -2 68 -2 57
19 -6 12 -9 24 -7 27 3 2 11 -5 18 -18 11 -22 12 -22 25 -4 13 18 14 18 14 -3
0 -19 5 -22 43 -22 l42 0 -47 41 c-27 22 -48 48 -48 57 0 12 5 11 25 -8 14
-13 25 -29 25 -37 0 -7 5 -13 10 -13 6 0 10 2 10 4 0 10 -105 136 -162 194
-70 70 -67 83 4 19z m-1067 1 c5 -8 31 -21 58 -28 26 -8 47 -17 47 -21 0 -3
-39 -23 -86 -43 -60 -26 -94 -36 -113 -31 -21 4 -23 3 -11 -6 12 -8 9 -9 -13
-4 -16 3 -26 2 -23 -3 6 -9 -107 -40 -169 -46 -22 -2 -32 -1 -22 1 10 3 17 14
17 28 0 13 6 30 13 37 7 7 29 36 49 64 30 41 46 53 80 62 56 14 159 8 173 -10z
m1310 8 c21 -14 95 -31 152 -35 12 -1 33 -30 91 -120 12 -20 27 -45 32 -56 26
-54 28 -55 176 -55 137 0 139 0 161 27 13 14 24 36 24 47 2 20 3 39 7 79 1 9
9 17 18 17 8 0 29 14 46 30 16 17 31 30 33 30 1 0 0 -28 -2 -62 l-5 -63 56
-70 c57 -71 60 -81 46 -125 l-8 -25 -7 23 c-8 23 -8 23 -26 -7 -10 -17 -27
-31 -38 -31 -10 0 -38 -7 -61 -15 -60 -21 -84 -12 -76 28 3 17 13 38 21 47 22
24 18 32 -12 28 l-28 -3 -5 -204 c-5 -197 -4 -205 17 -235 l21 -31 -21 -23
c-21 -23 -22 -30 -19 -270 3 -224 5 -249 22 -273 10 -15 16 -29 13 -33 -8 -8
-218 -8 -226 0 -4 4 2 19 13 34 17 24 19 49 22 258 3 263 14 234 -87 234 l-50
0 4 -238 c3 -180 7 -244 17 -260 8 -11 11 -24 7 -27 -8 -9 -208 -9 -216 0 -4
3 -1 16 7 28 11 17 15 79 17 280 4 257 4 258 -18 272 l-22 15 26 34 26 35 -6
193 c-3 131 -9 202 -18 217 -7 13 -14 27 -15 32 -1 4 -3 9 -4 12 -1 3 -3 8 -4
13 -1 4 -5 21 -10 38 -4 18 -18 37 -31 44 -14 7 -25 20 -25 28 0 9 -3 12 -7 9
-3 -4 -12 -2 -19 4 -9 7 -19 7 -33 -1 -18 -9 -25 -7 -46 14 -25 25 -35 76 -15
76 6 0 10 9 10 19 0 31 42 40 75 17z m-906 -77 c-19 -24 -82 -73 -146 -115
-62 -40 -113 -76 -113 -79 0 -4 6 -3 13 1 6 4 -3 -6 -20 -23 l-33 -31 0 -194
c0 -179 2 -196 21 -228 l21 -34 -23 -15 c-13 -9 -48 -38 -77 -66 l-53 -50 60
-205 c34 -113 70 -217 81 -231 10 -15 16 -29 13 -33 -10 -10 -221 -7 -227 3
-4 5 1 22 10 38 15 27 13 35 -28 176 l-44 147 -22 -45 c-19 -39 -22 -62 -22
-158 0 -83 4 -118 15 -133 8 -12 11 -24 8 -28 -8 -8 -208 -8 -216 0 -3 4 0 16
8 28 23 31 22 522 -1 554 -14 20 -14 24 0 44 23 32 24 423 1 454 -8 12 -11 24
-8 28 3 3 114 6 246 6 l240 0 66 49 c70 52 254 180 259 180 2 1 -11 -18 -29
-40z m330 -124 c-1 -58 -5 -108 -10 -111 -12 -7 -12 -421 0 -428 5 -4 12 29
16 71 9 113 13 112 12 -2 -2 -77 -6 -106 -20 -125 -15 -22 -17 -53 -17 -280 1
-206 3 -259 15 -274 8 -10 12 -23 9 -27 -6 -10 -497 -12 -507 -3 -3 4 0 19 8
35 22 42 22 497 0 539 -14 27 -14 33 0 60 22 42 22 415 0 446 -8 12 -11 24 -8
28 3 3 48 6 98 6 96 0 123 -10 105 -40 -6 -8 -10 -107 -10 -220 0 -170 3 -209
16 -228 14 -20 14 -24 0 -44 -13 -19 -16 -58 -16 -225 l0 -203 59 0 58 0 7
159 c7 168 1 254 -19 271 -9 8 -16 2 -25 -21 -11 -26 -11 -36 4 -66 17 -36 16
-72 -6 -145 -12 -40 -38 -52 -38 -18 0 11 -4 20 -10 20 -14 0 -12 126 3 153 6
12 14 24 17 27 10 10 11 32 1 44 -11 13 4 239 19 274 6 13 10 31 10 42 0 10 4
21 9 25 6 3 10 -53 10 -141 0 -81 3 -149 5 -152 17 -16 26 72 26 237 0 172 -2
190 -20 213 -22 29 -18 38 19 38 26 0 81 47 81 69 0 6 5 11 10 11 6 0 10 -11
10 -24 0 -42 11 -56 41 -56 l29 0 0 85 c0 47 2 85 5 85 3 0 5 -47 4 -105z m66
-885 c44 -41 31 -167 -23 -217 -14 -13 -29 -23 -33 -23 -5 0 -9 60 -9 133 0
127 1 134 20 132 11 -1 31 -12 45 -25z m-1128 -442 c-2 -48 0 -53 21 -56 21
-3 22 0 22 52 0 43 3 56 15 56 13 0 15 -21 15 -130 0 -109 -2 -130 -15 -130
-12 0 -15 14 -15 65 0 66 -7 76 -39 56 -9 -6 -12 -25 -10 -65 3 -38 0 -56 -8
-56 -13 0 -20 103 -15 201 3 41 8 59 17 59 10 0 13 -14 12 -52z m223 -78 c0
-113 -2 -130 -16 -130 -14 0 -16 10 -12 65 4 62 3 65 -19 65 -22 0 -23 -4 -23
-65 0 -51 -3 -65 -15 -65 -13 0 -15 21 -15 130 l0 130 50 0 50 0 0 -130z m535
-1 c0 -97 -3 -129 -12 -129 -13 0 -18 75 -13 183 2 46 1 48 -22 45 -23 -3 -23
-5 -23 -116 0 -83 -3 -112 -12 -112 -13 0 -17 64 -13 183 1 45 0 47 -25 47
-26 0 -27 -2 -25 -47 5 -108 0 -183 -12 -183 -10 0 -13 32 -13 128 l0 128 85
1 85 0 0 -128z m155 66 c3 -33 4 -90 2 -127 l-4 -68 -49 0 -49 0 0 131 0 131
48 -4 47 -3 5 -60z m724 4 c-1 -33 -7 -66 -13 -72 -15 -15 -14 -36 4 -86 12
-36 12 -41 0 -41 -9 0 -19 18 -26 45 -9 37 -14 43 -25 34 -8 -6 -14 -27 -14
-45 0 -21 -5 -34 -12 -34 -10 0 -13 33 -13 130 l0 130 50 0 50 0 -1 -61z m616
-69 c0 -109 -2 -130 -15 -130 -12 0 -15 14 -15 65 0 58 -2 65 -20 65 -18 0
-20 -7 -20 -65 0 -51 -3 -65 -15 -65 -13 0 -15 21 -15 130 l0 130 50 0 50 0 0
-130z"/>
<path d="M2760 1625 l0 -384 65 40 65 41 0 328 c0 181 -3 335 -6 344 -5 12
-21 16 -65 16 l-59 0 0 -385z"/>
<path d="M3356 1908 c-3 -50 -6 -112 -6 -137 l0 -46 76 0 76 0 -6 35 c-3 19
-6 81 -6 138 l0 102 -64 0 -63 0 -7 -92z"/>
<path d="M1560 1768 l0 -243 60 62 60 61 0 181 0 181 -60 0 -60 0 0 -242z"/>
</g>
</svg>
